<svg version="1.1" id="Layer_1" xmlns="http://www.w3.org/2000/svg" x="0px" y="0px" viewBox="0 0 200 52" enable-background="new 0 0 200 52" xml:space="preserve">
    <path fill-rule="evenodd" clip-rule="evenodd" d="M112.163,8.49l-5.229,24.408c0,0,1.046,9.551,7.32,9.551
    c6.274,0,17.776,0,17.776,0l1.046-6.368h-15.685c0,0-3.312-0.531-2.091-8.49c1.22-7.959,4.183-19.102,4.183-19.102H112.163z"></path>
    <path fill-rule="evenodd" clip-rule="evenodd" d="M139.351,8.49l-4.183,21.225c0,0-6.448-0.708-6.274-4.245 c0.174-3.537,3.137-16.979,3.137-16.979H139.351z"></path>
    <path fill-rule="evenodd" clip-rule="evenodd" d="M143.534,8.49l-4.183,20.164c0,0-2.38,7.428,5.229,7.428
    c0.739,0,4.183-21.225,4.183-21.225l9.411,1.062c0,0,4.009,0.354,2.091,8.49c-1.917,8.136-3.137,14.857-3.137,14.857 s1.394,4.245,6.274,4.245c0.697,0,4.183-24.408,4.183-24.408s0.349-10.612-8.365-10.612S143.534,8.49,143.534,8.49z"></path>
	<path fill-rule="evenodd" clip-rule="evenodd" d="M172.813,8.49l-1.046,6.367h26.142L200,8.49H172.813z"></path>
	<path fill-rule="evenodd" clip-rule="evenodd" d="M170.721,22.286l-2.091,11.673c0,0-0.418,8.49,8.365,8.49s9.411,0,9.411,0 l2.091-6.368h-9.411c0,0-4.601-0.849-3.137-6.367c1.464-5.519,2.092-7.429,2.092-7.429H170.721z"></path>
	<path fill-rule="evenodd" clip-rule="evenodd" d="M78.702,15.918l-6.274,31.836c0,0-0.418,4.245,5.228,4.245 c0.836,0,6.274-23.347,6.274-23.347h12.548l-1.045,7.428c0,0,6.064,0.212,7.319-4.245C104.007,27.379,109.026,0,109.026,0h-6.274 l-5.228,22.286H84.976l1.046-6.367H78.702z"></path>
	<path fill-rule="evenodd" clip-rule="evenodd" d="M12.824,8.49L5.504,43.51c0,0-6.971,0.354-5.229-8.49
    C2.019,26.177,5.504,8.49,5.504,8.49H12.824z"></path>
    <path fill-rule="evenodd" clip-rule="evenodd" d="M44.194,14.857H15.961c0,0,1.917-6.367,7.32-6.367s21.959,0,21.959,0
    L44.194,14.857z"></path>
    <path fill-rule="evenodd" clip-rule="evenodd" d="M42.103,22.286c0,0-2.44,20.164-14.64,20.164s-16.731,0-16.731,0l2.092-6.368
    h15.685c0,0,5.228-1.934,5.228-7.428c0-0.708-16.73,0-16.73,0s-2.091,0.884-2.091-6.368C14.916,22.109,42.103,22.286,42.103,22.286z
    "></path>
    <path fill-rule="evenodd" clip-rule="evenodd" d="M68.245,14.857c0,0-2.266,21.225-8.365,21.225s-9.411,0-9.411,0l-8.365,7.429
    h16.73c0,0,9.585-3.36,11.503-10.612c1.917-7.251,5.228-24.408,5.228-24.408H57.788c-0.178-0.001-7.421-0.055-9.967,9.547
    c-1.686,6.36-5.718,25.474-5.718,25.474l8.365-7.429l3.137-16.979c0,0,1.307-4.112,5.228-4.245
    C62.755,14.725,68.245,14.857,68.245,14.857z"></path>
</svg>